<svg width="25" height="25" viewBox="0 0 25 25" fill="none" xmlns="http://www.w3.org/2000/svg">
<path d="M23.9228 12.0021C23.9228 14.3609 23.2233 16.6666 21.9128 18.6277C20.6022 20.5889 18.7396 22.1173 16.5603 23.0198C14.3811 23.9222 11.9831 24.1581 9.66978 23.6977C7.35644 23.2372 5.23162 22.101 3.56405 20.4329C1.89648 18.7647 0.761077 16.6395 0.301433 14.326C-0.158211 12.0125 0.0785553 9.6146 0.981787 7.43567C1.88502 5.25674 3.41414 3.39461 5.37576 2.08479C7.33738 0.774969 9.64337 0.0763014 12.0021 0.0771492C13.5679 0.0771491 15.1184 0.385629 16.5649 0.984968C18.0115 1.58431 19.3258 2.46276 20.4328 3.57016C21.5398 4.67755 22.4178 5.99218 23.0166 7.43896C23.6154 8.88575 23.9234 10.4363 23.9228 12.0021Z" fill="#03CF5D"/>
<path d="M23.8328 12.0021C23.8328 18.5862 18.5948 23.9228 12.1393 23.9228C5.68387 23.9228 0.42865 18.5862 0.42865 12.0021C0.42865 5.4181 5.67959 0.0771484 12.1393 0.0771484C18.599 0.0771484 23.8328 5.41382 23.8328 12.0021Z" fill="#03CF5D"/>
<path d="M12.0021 24.0043C9.62835 24.0043 7.30786 23.3004 5.33411 21.9816C3.36037 20.6628 1.82203 18.7883 0.913614 16.5952C0.00520043 14.4021 -0.232482 11.9888 0.230623 9.66065C0.693728 7.33246 1.83682 5.19388 3.51535 3.51535C5.19388 1.83682 7.33246 0.693728 9.66065 0.230623C11.9888 -0.232482 14.4021 0.00520043 16.5952 0.913614C18.7883 1.82203 20.6628 3.36037 21.9816 5.33411C23.3004 7.30786 24.0043 9.62835 24.0043 12.0021C24.0043 15.1853 22.7398 18.2381 20.4889 20.4889C18.2381 22.7398 15.1853 24.0043 12.0021 24.0043ZM12.0021 1.28595C9.88268 1.28595 7.81082 1.91444 6.04855 3.09195C4.28628 4.26946 2.91275 5.94311 2.10167 7.90124C1.29059 9.85937 1.07837 12.014 1.49186 14.0928C1.90534 16.1715 2.92596 18.081 4.42465 19.5796C5.92334 21.0783 7.83278 22.0989 9.91152 22.5124C11.9903 22.9259 14.1449 22.7137 16.1031 21.9026C18.0612 21.0915 19.7348 19.718 20.9123 17.9557C22.0898 16.1935 22.7183 14.1216 22.7183 12.0021C22.7183 9.16004 21.5893 6.43433 19.5796 4.42465C17.57 2.41497 14.8443 1.28595 12.0021 1.28595Z" fill="#03CF5D"/>
<path d="M10.6648 16.9059C10.4932 16.905 10.3287 16.8373 10.2061 16.7172L6.66976 13.1809C6.61009 13.121 6.56281 13.0498 6.53063 12.9716C6.49844 12.8934 6.48198 12.8096 6.48218 12.725C6.48238 12.6404 6.49924 12.5567 6.53179 12.4787C6.56434 12.4006 6.61195 12.3297 6.6719 12.27C6.73185 12.2104 6.80296 12.1631 6.88119 12.1309C6.95941 12.0987 7.0432 12.0822 7.12778 12.0824C7.21237 12.0826 7.29608 12.0995 7.37415 12.1321C7.45222 12.1646 7.52311 12.2122 7.58278 12.2722L10.639 15.3284L16.5072 8.81298C16.5619 8.7448 16.63 8.6885 16.7072 8.6475C16.7843 8.6065 16.8691 8.58168 16.9562 8.57454C17.0433 8.5674 17.131 8.57809 17.2138 8.60598C17.2967 8.63386 17.373 8.67834 17.438 8.7367C17.5031 8.79506 17.5556 8.86607 17.5923 8.9454C17.629 9.02473 17.6491 9.11071 17.6515 9.19808C17.6538 9.28546 17.6383 9.3724 17.6059 9.45358C17.5736 9.53477 17.525 9.6085 17.4631 9.67027L11.1448 16.6915C11.0865 16.7571 11.0154 16.81 10.9357 16.8469C10.856 16.8838 10.7697 16.9039 10.6819 16.9059H10.6648Z" fill="white"/>
</svg>
